<?xml version="1.0" standalone="no"?>
<!DOCTYPE svg PUBLIC "-//W3C//DTD SVG 1.1//EN" "http://www.w3.org/Graphics/SVG/1.1/DTD/svg11.dtd" >
<svg>
<metadata>
Created by FontForge 20120731 at Tue Jul 16 05:06:36 2019
 By www-data
Copyright 1993, 1994 , 2002Adobe Systems Incorporated. All Rights Reserved. ITC Avant Garde Gothic is a registered trademark of International Typeface Corporation.
</metadata>
<defs>
<font id="ITCAvantGardeStd-Bold" horiz-adv-x="555" >
  <font-face 
    font-family="ITC Avant Garde Gothic Std Bold"
    font-weight="700"
    font-stretch="normal"
    units-per-em="1000"
    panose-1="2 11 8 2 2 2 2 2 2 4"
    ascent="740"
    descent="-260"
    x-height="555"
    cap-height="740"
    bbox="-118 -271 1222 1017"
    underline-thickness="50"
    underline-position="-50"
    stemh="155"
    stemv="166"
    unicode-range="U+0020-FB02"
  />
<missing-glyph horiz-adv-x="500" 
d="M0 0v700h500v-700h-500zM250 395l170 255h-340zM280 350l170 -255v510zM80 50h340l-170 255zM50 605v-510l170 255z" />
    <glyph glyph-name="fi" unicode="fi" horiz-adv-x="601" 
d="M375 429h-143v-429h-166v429h-62v126h62v24c0 161 119 175 236 175v-125c-31 0 -70 0 -70 -53v-21h309v-555h-166v429zM541 614h-166v126h166v-126z" />
    <glyph glyph-name="fl" unicode="fl" horiz-adv-x="601" 
d="M375 429h-143v-429h-166v429h-62v126h62v24c0 161 119 175 236 175v-125c-31 0 -70 0 -70 -53v-21h143v184h166v-739h-166v429z" />
    <glyph glyph-name=".notdef" horiz-adv-x="500" 
d="M0 0v700h500v-700h-500zM250 395l170 255h-340zM280 350l170 -255v510zM80 50h340l-170 255zM50 605v-510l170 255z" />
    <glyph glyph-name="space" unicode=" " horiz-adv-x="309" 
 />
    <glyph glyph-name="exclam" unicode="!" horiz-adv-x="333" 
d="M252 740v-496h-171v496h171zM252 170v-170h-171v170h171z" />
    <glyph glyph-name="quotedbl" unicode="&#x22;" horiz-adv-x="463" 
d="M199 444h-124v296h124v-296zM388 444h-124v296h124v-296z" />
    <glyph glyph-name="numbersign" unicode="#" horiz-adv-x="618" 
d="M434 231l-24 -174h-113l24 174h-78l-24 -174h-114l24 174h-99l15 111h100l10 73h-100l15 111h100l22 158h114l-22 -158h78l22 158h114l-22 -158h111l-15 -111h-112l-10 -73h111l-15 -111h-112zM337 342l10 73h-78l-10 -73h78z" />
    <glyph glyph-name="dollar" unicode="$" horiz-adv-x="618" 
d="M381 811v-101c80 -19 141 -85 139 -190h-155c0 28 -15 63 -55 63c-34 0 -54 -27 -54 -56c0 -51 47 -69 135 -103c124 -47 147 -140 147 -192c0 -84 -50 -168 -157 -207v-101h-135v101c-116 17 -166 119 -166 199h171c0 -38 23 -71 59 -71c34 0 57 29 57 59
c0 58 -75 86 -141 110c-54 18 -140 62 -140 186c0 123 84 181 160 202v101h135z" />
    <glyph glyph-name="percent" unicode="%" horiz-adv-x="858" 
d="M36 574v1c0 99 81 180 180 180c100 0 180 -81 180 -181s-81 -180 -180 -180c-98 0 -180 80 -180 180zM147 574v-1c0 -36 31 -68 69 -68c36 0 69 30 69 70c0 39 -31 69 -69 69s-69 -30 -69 -70zM461 166v1c0 99 81 180 181 180c99 0 180 -81 180 -181
c0 -101 -83 -181 -180 -181c-98 0 -181 79 -181 181zM572 166v-1c0 -37 31 -69 70 -69c37 0 69 31 69 70c0 40 -32 70 -69 70c-40 0 -70 -32 -70 -70zM638 740l-307 -740h-115l306 740h116z" />
    <glyph glyph-name="ampersand" unicode="&#x26;" horiz-adv-x="758" 
d="M550 435h175l-120 -225l112 -114l-113 -111l-90 93c-19 -33 -79 -93 -199 -93c-165 0 -266 95 -266 215c0 110 84 167 137 203c-52 53 -70 107 -70 160c0 108 91 191 205 191s194 -82 194 -182c0 -97 -70 -147 -102 -170l82 -83zM322 620h-1c-21 0 -44 -16 -44 -49
c0 -35 25 -62 42 -80c22 22 46 46 46 82c0 26 -15 47 -43 47zM405 185l-117 118c-24 -19 -57 -45 -57 -86c0 -47 40 -73 89 -73c48 0 72 22 85 41z" />
    <glyph glyph-name="quoteright" unicode="&#x2019;" horiz-adv-x="314" 
d="M2 490l84 250h142l-106 -250h-120z" />
    <glyph glyph-name="parenleft" unicode="(" horiz-adv-x="473" 
d="M430 754v-183c-82 -35 -185 -151 -185 -327c0 -165 95 -285 185 -324v-184c-261 84 -365 323 -365 510c0 186 103 425 365 508z" />
    <glyph glyph-name="parenright" unicode=")" horiz-adv-x="473" 
d="M43 -264v183c82 35 185 151 185 327c0 165 -95 285 -185 324v184c261 -84 365 -323 365 -510c0 -186 -103 -425 -365 -508z" />
    <glyph glyph-name="asterisk" unicode="*" horiz-adv-x="670" 
d="M389 740l-32 -153l118 103l52 -94l-144 -46l144 -46l-56 -98l-116 106l34 -152h-108l32 154l-114 -108l-56 98l144 48l-144 44l52 94l120 -102l-34 152h108z" />
    <glyph glyph-name="plus" unicode="+" horiz-adv-x="600" 
d="M380 506v-173h172v-160h-172v-173h-160v173h-172v160h172v173h160z" />
    <glyph glyph-name="comma" unicode="," horiz-adv-x="314" 
d="M243 170l-100 -250h-137l64 250h173z" />
    <glyph glyph-name="hyphen" unicode="-" horiz-adv-x="281" 
d="M0 370h281v-163h-281v163z" />
    <glyph glyph-name="period" unicode="." horiz-adv-x="314" 
d="M244 170v-170h-173v170h173z" />
    <glyph glyph-name="slash" unicode="/" horiz-adv-x="593" 
d="M72 -100l265 840h184l-264 -840h-185z" />
    <glyph glyph-name="zero" unicode="0" horiz-adv-x="618" 
d="M33 267v206c0 214 173 281 279 281c95 0 273 -62 273 -281v-206c0 -206 -157 -281 -273 -281c-109 0 -279 72 -279 281zM222 478v-216c0 -44 14 -110 87 -110c87 0 87 88 87 110v216c0 23 0 110 -87 110c-75 0 -87 -70 -87 -110z" />
    <glyph glyph-name="one" unicode="1" horiz-adv-x="618" 
d="M225 0v581h-121v159h310v-740h-189z" />
    <glyph glyph-name="two" unicode="2" horiz-adv-x="618" 
d="M51 0v147c67 56 133 112 199 168c78 65 129 110 129 190c0 59 -34 83 -79 83c-65 0 -75 -63 -76 -117h-180c2 48 4 109 44 170c63 98 174 113 228 113c165 0 252 -110 252 -229c0 -90 -27 -155 -122 -242c-45 -41 -90 -82 -136 -124h263v-159h-522z" />
    <glyph glyph-name="three" unicode="3" horiz-adv-x="618" 
d="M239 524h-186c2 89 40 146 90 181c50 36 113 49 163 49c144 0 232 -98 232 -202c0 -102 -71 -140 -98 -155c139 -47 139 -154 139 -179c0 -129 -125 -232 -274 -232c-86 0 -183 33 -231 104c-33 48 -38 104 -41 131h191c4 -17 17 -68 85 -69c55 0 81 36 81 83
c0 70 -72 75 -99 75h-67v139h32c17 0 93 0 93 74c0 32 -15 65 -52 65c-55 0 -57 -46 -58 -64z" />
    <glyph glyph-name="four" unicode="4" horiz-adv-x="618" 
d="M341 0v130h-326v138l331 472h176v-462h82v-148h-82v-130h-181zM205 278h148v232z" />
    <glyph glyph-name="five" unicode="5" horiz-adv-x="618" 
d="M116 740h409v-159h-264l-16 -101c20 11 42 22 100 22c175 0 247 -146 247 -248c0 -113 -85 -269 -284 -269c-159 0 -260 96 -282 213h190c17 -23 48 -46 87 -46c54 0 100 44 100 98c0 48 -35 97 -101 97c-37 0 -75 -14 -97 -64l-153 38z" />
    <glyph glyph-name="six" unicode="6" horiz-adv-x="618" 
d="M273 740h219l-134 -183c-9 -13 -19 -26 -29 -40c1 -1 24 2 38 2c108 0 233 -83 233 -251c0 -169 -131 -282 -287 -282c-93 0 -179 34 -229 100c-47 53 -63 129 -63 186c0 75 31 141 68 198zM207 255v-1c0 -68 54 -102 100 -102c56 0 104 41 104 100
c0 48 -36 101 -104 101c-60 0 -100 -46 -100 -98z" />
    <glyph glyph-name="seven" unicode="7" horiz-adv-x="618" 
d="M65 740h482v-145l-260 -595h-208l273 581h-287v159z" />
    <glyph glyph-name="eight" unicode="8" horiz-adv-x="618" 
d="M58 548v1c0 99 79 205 251 205s251 -106 251 -206c0 -83 -49 -122 -72 -141c70 -35 91 -102 91 -172c0 -145 -111 -249 -270 -249s-270 104 -270 249c0 70 21 137 91 172c-23 19 -72 58 -72 141zM241 533v-1c0 -39 32 -67 68 -67s68 28 68 68s-32 68 -68 68
s-68 -28 -68 -68zM228 236v-1c0 -38 30 -83 81 -83s81 45 81 84c0 40 -29 85 -81 85s-81 -45 -81 -85z" />
    <glyph glyph-name="nine" unicode="9" horiz-adv-x="618" 
d="M347 0h-219l134 183c10 14 20 27 29 40c-1 1 -24 -2 -38 -2c-108 0 -233 83 -233 251c0 169 131 282 287 282c93 0 179 -34 229 -100c47 -53 63 -129 63 -186c0 -75 -31 -141 -68 -198zM413 486v1c0 67 -54 101 -102 101c-54 0 -102 -40 -102 -99c0 -48 35 -101 102 -101
c62 0 102 46 102 98z" />
    <glyph glyph-name="colon" unicode=":" horiz-adv-x="314" 
d="M244 555v-170h-173v170h173zM244 170v-170h-173v170h173z" />
    <glyph glyph-name="semicolon" unicode=";" horiz-adv-x="314" 
d="M244 555v-170h-173v170h173zM244 170l-110 -250h-127l64 250h173z" />
    <glyph glyph-name="less" unicode="&#x3c;" horiz-adv-x="600" 
d="M46 330l508 214v-175l-340 -117l340 -115v-175l-508 214v154z" />
    <glyph glyph-name="equal" unicode="=" horiz-adv-x="600" 
d="M48 465h504v-160h-504v160zM48 201h504v-160h-504v160z" />
    <glyph glyph-name="greater" unicode="&#x3e;" horiz-adv-x="600" 
d="M46 137l340 117l-340 115v175l508 -214v-154l-508 -214v175z" />
    <glyph glyph-name="question" unicode="?" horiz-adv-x="592" 
d="M361 235h-174c1 70 38 113 104 176c50 49 68 79 68 110c0 36 -17 62 -58 62c-55 0 -66 -40 -68 -75c-1 -7 -1 -14 -1 -21h-183c-1 9 -1 13 -1 18c0 144 110 249 263 249c156 0 240 -113 240 -212c0 -92 -59 -146 -113 -196c-65 -60 -74 -80 -77 -111zM361 170v-170h-174
v170h174z" />
    <glyph glyph-name="at" unicode="@" horiz-adv-x="748" 
d="M603 112l21 -92c-100 -36 -208 -36 -232 -36c-292 0 -395 226 -395 381c0 199 152 391 392 391c210 0 354 -146 354 -328c0 -145 -93 -269 -196 -269c-53 0 -83 29 -98 72c-35 -57 -71 -72 -119 -72c-85 0 -154 75 -154 177c0 104 78 224 195 224c54 0 88 -28 99 -59
l10 47h104l-37 -218c-2 -12 -6 -38 -7 -48c-1 -21 10 -29 27 -29c37 0 82 77 82 174c0 140 -109 238 -256 238c-177 0 -294 -148 -294 -302c0 -79 40 -288 293 -288c72 0 143 12 211 37zM283 340v-1c0 -63 41 -86 75 -86c38 0 67 27 82 68c6 19 10 41 10 64
c0 36 -16 81 -66 81c-58 0 -101 -63 -101 -126z" />
    <glyph glyph-name="A" unicode="A" horiz-adv-x="758" 
d="M248 107l-34 -107h-205l293 740h163l284 -740h-207l-35 107h-259zM458 257l-83 258l-80 -258h163z" />
    <glyph glyph-name="B" unicode="B" horiz-adv-x="647" 
d="M67 0v740h272c76 0 137 -17 179 -50c43 -32 66 -81 66 -144c0 -57 -26 -115 -86 -149c119 -42 122 -141 122 -172c0 -59 -23 -124 -68 -161c-68 -57 -117 -64 -242 -64h-243zM256 574v-115h67c13 0 33 0 50 7c17 8 30 23 30 52c0 28 -13 42 -29 49s-36 7 -51 7h-67z
M256 301v-135h89c12 0 36 0 56 9c21 9 38 27 38 62c0 32 -16 48 -36 56c-19 8 -43 8 -58 8h-89z" />
    <glyph glyph-name="C" unicode="C" horiz-adv-x="832" 
d="M603 277h198c-43 -175 -195 -291 -374 -291c-232 0 -390 185 -390 385c0 189 146 383 388 383c232 0 356 -179 376 -295h-198c-21 55 -77 129 -179 129c-127 0 -198 -111 -198 -216c0 -112 76 -220 199 -220c118 0 166 99 178 125z" />
    <glyph glyph-name="D" unicode="D" horiz-adv-x="742" 
d="M67 0v740h245c83 0 231 0 327 -138c51 -70 68 -149 68 -230c0 -202 -100 -372 -381 -372h-259zM256 574v-408h81c141 0 181 98 181 203c0 42 -9 95 -36 137c-22 33 -60 68 -144 68h-82z" />
    <glyph glyph-name="E" unicode="E" horiz-adv-x="528" 
d="M67 0v740h419v-166h-230v-115h223v-166h-223v-127h230v-166h-419z" />
    <glyph glyph-name="F" unicode="F" horiz-adv-x="506" 
d="M67 0v740h404v-166h-215v-126h207v-166h-207v-282h-189z" />
    <glyph glyph-name="G" unicode="G" horiz-adv-x="854" 
d="M801 492h-212c-10 18 -23 35 -39 50c-31 27 -72 46 -124 46c-93 0 -202 -69 -202 -215c0 -155 110 -222 203 -222c47 0 86 12 116 33c30 20 51 50 61 86h-221v151h439c4 -53 -2 -140 -34 -212c-72 -163 -238 -224 -360 -224c-224 0 -393 175 -393 388
c0 221 178 381 396 381c177 0 329 -119 370 -262z" />
    <glyph glyph-name="H" unicode="H" horiz-adv-x="754" 
d="M256 0h-189v740h189v-278h242v278h189v-740h-189v296h-242v-296z" />
    <glyph glyph-name="I" unicode="I" horiz-adv-x="323" 
d="M67 0v740h189v-740h-189z" />
    <glyph glyph-name="J" unicode="J" horiz-adv-x="578" 
d="M510 740v-447c0 -93 -8 -141 -24 -176c-16 -34 -50 -69 -82 -88c-45 -29 -99 -43 -149 -43c-17 0 -212 0 -244 195c-3 18 -5 37 -5 57h201c0 -7 1 -14 2 -22c4 -30 15 -64 55 -64c29 0 43 15 50 34c7 20 7 43 7 60v494h189z" />
    <glyph glyph-name="K" unicode="K" horiz-adv-x="707" 
d="M87 0v740h189v-333l211 333h198l-244 -368l269 -372h-230l-204 320v-320h-189z" />
    <glyph glyph-name="L" unicode="L" horiz-adv-x="487" 
d="M72 0v740h189v-574h219v-166h-408z" />
    <glyph glyph-name="M" unicode="M" horiz-adv-x="915" 
d="M241 0h-174v740h253l139 -477l135 477h254v-740h-174l6 554l-160 -554h-125l-160 554z" />
    <glyph glyph-name="N" unicode="N" horiz-adv-x="759" 
d="M230 740l284 -451l-4 451h181v-740h-164l-283 446l4 -446h-181v740h163z" />
    <glyph glyph-name="O" unicode="O" horiz-adv-x="851" 
d="M35 361v1c0 242 186 392 390 392c228 0 391 -178 391 -384s-162 -384 -392 -384c-233 0 -389 185 -389 375zM224 372v-1c0 -113 77 -219 204 -219c134 0 199 122 199 217c0 96 -65 219 -201 219c-131 0 -202 -112 -202 -216z" />
    <glyph glyph-name="P" unicode="P" horiz-adv-x="636" 
d="M67 740h242c137 0 188 -21 228 -54c58 -48 87 -121 87 -196s-31 -154 -78 -194c-51 -43 -101 -64 -216 -64h-74v-232h-189v740zM256 574v-176h69c18 0 48 0 73 11s45 34 45 78s-21 65 -47 76s-57 11 -78 11h-62z" />
    <glyph glyph-name="Q" unicode="Q" horiz-adv-x="866" 
d="M855 137v-150c-14 -1 -29 -2 -47 -2c-102 0 -154 37 -174 58c-86 -53 -159 -58 -208 -58c-239 0 -391 193 -391 381c0 194 150 388 389 388s395 -189 395 -378c0 -123 -42 -185 -61 -214c23 -21 53 -25 97 -25zM425 588h-1c-87 0 -158 -52 -188 -143
c-3 -10 -7 -19 -8 -30c22 7 60 21 109 21c54 0 101 -11 157 -50c49 -34 78 -62 116 -104c12 23 20 56 20 94c0 131 -95 212 -205 212zM424 151h1c30 0 60 6 75 15c-23 30 -44 50 -63 66c-38 32 -82 44 -119 44c-32 0 -54 -5 -69 -11c32 -77 114 -114 175 -114z" />
    <glyph glyph-name="R" unicode="R" horiz-adv-x="653" 
d="M67 0v740h242c116 0 188 -21 229 -53c62 -48 90 -121 90 -202c0 -57 -16 -101 -37 -134c-25 -39 -61 -64 -96 -79l153 -272h-195l-193 357h31c48 0 89 4 114 20c23 15 42 50 42 91c0 39 -19 70 -44 86c-21 13 -51 20 -77 20h-70v-574h-189z" />
    <glyph glyph-name="S" unicode="S" horiz-adv-x="573" 
d="M25 245h188c0 -86 53 -101 77 -101c45 0 72 37 72 71c0 39 -31 51 -145 99c-52 21 -181 73 -181 212c0 149 135 228 259 228c102 0 246 -52 249 -230h-187c-4 25 -10 72 -68 72c-33 0 -65 -23 -65 -58c0 -34 20 -43 153 -103c138 -62 173 -126 173 -212
c0 -118 -62 -237 -258 -237c-194 0 -272 114 -267 259z" />
    <glyph glyph-name="T" unicode="T" horiz-adv-x="499" 
d="M156 0v574h-146v166h480v-166h-145v-574h-189z" />
    <glyph glyph-name="U" unicode="U" horiz-adv-x="698" 
d="M65 740h189v-447c0 -25 1 -60 13 -89c13 -29 37 -52 83 -52c47 0 71 21 82 48c12 28 12 64 12 93v447h189v-447c0 -124 -27 -179 -74 -227c-48 -49 -115 -80 -207 -80c-54 0 -152 13 -213 79c-61 67 -74 119 -74 228v447z" />
    <glyph glyph-name="V" unicode="V" horiz-adv-x="722" 
d="M263 0l-247 740h194l150 -519l151 519h195l-248 -740h-195z" />
    <glyph glyph-name="W" unicode="W" horiz-adv-x="981" 
d="M207 0l-191 740h192l101 -481l109 481h145l109 -483l101 483h191l-196 -740h-166l-113 479l-111 -479h-171z" />
    <glyph glyph-name="X" unicode="X" horiz-adv-x="759" 
d="M11 0l259 394l-229 346h214l127 -211l123 211h213l-226 -350l256 -390h-214l-160 262l-152 -262h-211z" />
    <glyph glyph-name="Y" unicode="Y" horiz-adv-x="647" 
d="M230 0v269l-221 471h205l110 -297l111 297h203l-219 -471v-269h-189z" />
    <glyph glyph-name="Z" unicode="Z" horiz-adv-x="499" 
d="M483 587l-236 -421h236v-166h-467v124l255 450h-255v166h467v-153z" />
    <glyph glyph-name="bracketleft" unicode="[" horiz-adv-x="473" 
d="M401 -80v-134h-306v954h306v-134h-146v-686h146z" />
    <glyph glyph-name="backslash" unicode="\" horiz-adv-x="593" 
d="M336 -100l-264 840h184l265 -840h-185z" />
    <glyph glyph-name="bracketright" unicode="]" horiz-adv-x="473" 
d="M72 -214v134h146v686h-146v134h306v-954h-306z" />
    <glyph glyph-name="asciicircum" unicode="^" horiz-adv-x="600" 
d="M43 375l174 365h166l174 -365h-180l-78 223l-77 -223h-179z" />
    <glyph glyph-name="underscore" unicode="_" horiz-adv-x="500" 
d="M500 -125h-500v50h500v-50z" />
    <glyph glyph-name="quoteleft" unicode="&#x2018;" horiz-adv-x="314" 
d="M228 740l84 -250h-120l-106 250h142z" />
    <glyph glyph-name="a" unicode="a" horiz-adv-x="704" 
d="M643 555v-555h-166v60c-30 -54 -99 -79 -164 -79c-176 0 -279 138 -279 297c0 182 131 296 279 296c91 0 142 -44 164 -78v59h166zM200 276v-1c0 -51 38 -139 138 -139c59 0 95 28 116 62c14 22 21 46 23 71s-3 50 -14 73c-18 38 -56 77 -126 77
c-95 0 -137 -80 -137 -143z" />
    <glyph glyph-name="b" unicode="b" horiz-adv-x="693" 
d="M60 0v740h166v-187v-42c59 63 138 63 161 63c116 0 273 -83 273 -293c0 -200 -139 -300 -280 -300c-78 0 -138 38 -161 78v-59h-159zM494 278v1c0 71 -54 140 -136 140c-88 0 -138 -71 -138 -140c0 -77 52 -143 135 -143c85 0 139 69 139 142z" />
    <glyph glyph-name="c" unicode="c" horiz-adv-x="652" 
d="M452 211h169c-30 -126 -141 -229 -291 -229c-168 0 -297 132 -297 297c0 163 127 295 293 295c147 0 266 -97 294 -233h-168c-18 38 -51 78 -120 78c-39 2 -72 -13 -96 -39c-23 -26 -36 -62 -36 -102c0 -81 53 -141 132 -141c69 0 102 40 120 74z" />
    <glyph glyph-name="d" unicode="d" horiz-adv-x="698" 
d="M638 740v-740h-158v60c-16 -23 -56 -78 -168 -78c-168 0 -278 130 -278 297c0 188 134 295 275 295c98 0 145 -48 163 -66v60v172h166zM200 280v-1c0 -85 61 -142 139 -142c40 0 77 16 103 42s41 62 39 103c0 40 -16 74 -41 98c-25 25 -60 39 -99 39
c-96 0 -141 -75 -141 -139z" />
    <glyph glyph-name="e" unicode="e" horiz-adv-x="646" 
d="M609 220h-413c7 -59 63 -98 128 -98c53 0 81 23 101 52h170c-27 -62 -66 -110 -113 -142c-46 -33 -101 -50 -158 -50c-159 0 -294 129 -294 294c0 155 122 298 291 298c85 0 158 -33 210 -88c70 -75 91 -164 78 -266zM198 346h248c-4 26 -38 88 -124 88
s-120 -62 -124 -88z" />
    <glyph glyph-name="f" unicode="f" horiz-adv-x="314" 
d="M66 0v429h-62v126h62v24c0 161 119 175 236 175v-125c-31 0 -70 0 -70 -53v-21h70v-126h-70v-429h-166z" />
    <glyph glyph-name="g" unicode="g" horiz-adv-x="693" 
d="M635 555v-488c0 -83 -6 -136 -33 -183c-43 -70 -144 -131 -281 -131c-193 0 -266 116 -277 195h192c12 -27 34 -41 53 -48c20 -7 39 -7 44 -7c63 0 135 39 135 135v33c-19 -32 -67 -79 -154 -79c-151 0 -280 114 -280 292c0 190 136 299 280 299c62 0 123 -22 155 -70v52
h166zM200 280v-1c0 -88 64 -142 133 -142c41 0 73 14 97 38c23 24 37 57 39 96c0 41 -12 78 -35 104c-22 27 -56 43 -100 43c-71 0 -134 -57 -134 -138z" />
    <glyph glyph-name="h" unicode="h" horiz-adv-x="632" 
d="M60 0v740h166v-166v-70c30 50 86 70 145 70c85 0 135 -30 165 -79c30 -48 38 -114 38 -185v-310h-166v302c0 31 -4 60 -17 81c-14 21 -36 35 -72 35c-46 0 -70 -21 -81 -45c-12 -24 -12 -51 -12 -65v-308h-166z" />
    <glyph glyph-name="i" unicode="i" horiz-adv-x="286" 
d="M60 614v126h166v-126h-166zM60 0v555h166v-555h-166z" />
    <glyph glyph-name="j" unicode="j" horiz-adv-x="321" 
d="M87 614v126h166v-126h-166zM253 555v-543c0 -129 -24 -216 -206 -216h-41v126h22c58 0 59 44 59 84v549h166z" />
    <glyph glyph-name="k" unicode="k" horiz-adv-x="591" 
d="M66 0v740h166v-386l156 201h197l-209 -244l203 -311h-188l-159 267v-267h-166z" />
    <glyph glyph-name="l" unicode="l" horiz-adv-x="286" 
d="M60 0v740h166v-740h-166z" />
    <glyph glyph-name="m" unicode="m" horiz-adv-x="969" 
d="M60 0v555h155v-59s10 20 34 39c24 20 63 39 121 39c38 0 86 -10 127 -53c12 -12 23 -27 33 -46c11 17 24 34 40 48c33 30 78 51 136 51c39 0 101 -9 146 -56c52 -55 60 -92 60 -215v-303h-166v295c0 23 0 53 -11 78c-10 26 -31 45 -74 45c-46 0 -69 -21 -80 -46
c-12 -25 -12 -53 -12 -69v-303h-166v302c0 15 0 44 -10 69c-11 26 -31 47 -73 47c-47 0 -70 -22 -82 -49s-12 -57 -12 -74v-295h-166z" />
    <glyph glyph-name="n" unicode="n" horiz-adv-x="632" 
d="M60 0v555h155v-59c19 27 54 78 153 78c187 0 206 -152 206 -227v-347h-166v303c0 61 -13 115 -87 115c-82 0 -95 -59 -95 -116v-302h-166z" />
    <glyph glyph-name="o" unicode="o" horiz-adv-x="666" 
d="M34 278v1c0 135 97 294 299 294s299 -159 299 -295s-97 -295 -299 -295s-299 159 -299 295zM200 278v-1c0 -80 61 -139 133 -139s133 59 133 140s-61 140 -133 140s-133 -59 -133 -140z" />
    <glyph glyph-name="p" unicode="p" horiz-adv-x="697" 
d="M60 -185v740h156v-61c36 42 91 80 176 80c197 0 271 -173 271 -302c0 -160 -112 -291 -270 -291c-100 0 -147 48 -167 69v-50v-185h-166zM497 277v1c0 65 -48 141 -139 141c-40 0 -75 -16 -100 -42c-24 -25 -39 -61 -39 -101c0 -39 15 -74 40 -99s60 -41 99 -41
c87 0 139 71 139 141z" />
    <glyph glyph-name="q" unicode="q" horiz-adv-x="698" 
d="M638 555v-740h-166v185v57c-21 -26 -64 -75 -170 -75c-157 0 -268 126 -268 285c0 192 127 307 279 307c108 0 152 -60 166 -80v61h159zM200 274v-1c0 -57 45 -136 140 -136c38 0 73 16 98 41s40 60 40 98c2 39 -13 75 -39 101s-63 42 -101 42c-89 0 -138 -72 -138 -145z
" />
    <glyph glyph-name="r" unicode="r" horiz-adv-x="363" 
d="M59 0v555h156v-62c16 30 45 81 141 81v-167h-6c-85 0 -125 -31 -125 -109v-298h-166z" />
    <glyph glyph-name="s" unicode="s" horiz-adv-x="499" 
d="M459 399h-163c-1 12 -3 42 -52 42c-35 0 -47 -22 -47 -37c0 -25 41 -42 85 -55c94 -26 194 -54 194 -174c0 -122 -103 -194 -226 -194c-84 0 -211 38 -226 184h165c7 -51 56 -51 63 -51c28 0 58 16 58 43c0 38 -41 43 -147 84c-72 23 -132 70 -132 145
c0 115 100 188 215 188c73 0 199 -29 213 -175z" />
    <glyph glyph-name="t" unicode="t" horiz-adv-x="351" 
d="M93 0v429h-82v126h82v185h166v-185h80v-126h-80v-429h-166z" />
    <glyph glyph-name="u" unicode="u" horiz-adv-x="634" 
d="M574 555v-555h-155v59c-19 -27 -54 -78 -154 -78c-188 0 -207 152 -207 227v347h166v-303c0 -61 13 -115 88 -115c83 0 96 59 96 116v302h166z" />
    <glyph glyph-name="v" unicode="v" horiz-adv-x="592" 
d="M575 555l-200 -555h-159l-199 555h172l107 -346l107 346h172z" />
    <glyph glyph-name="w" unicode="w" horiz-adv-x="850" 
d="M177 0l-170 555h172l85 -345l91 345h140l94 -345l83 345h171l-170 -555h-154l-95 359l-93 -359h-154z" />
    <glyph glyph-name="x" unicode="x" horiz-adv-x="630" 
d="M1 0l211 297l-187 258h199l90 -146l89 146h197l-187 -258l215 -297h-203l-111 172l-113 -172h-200z" />
    <glyph glyph-name="y" unicode="y" horiz-adv-x="574" 
d="M119 -185l88 213l-206 527h177l113 -322l106 322h176l-278 -740h-176z" />
    <glyph glyph-name="z" unicode="z" horiz-adv-x="444" 
d="M15 0v114l234 315h-234v126h413v-126l-217 -303h217v-126h-413z" />
    <glyph glyph-name="braceleft" unicode="{" horiz-adv-x="554" 
d="M483 740v-126h-55c-54 0 -58 -38 -58 -65v-209c-1 -95 -108 -107 -108 -109c35 -2 107 -19 108 -92v-212c0 -27 4 -65 58 -65h55v-126h-128c-78 0 -153 42 -153 138v212c0 55 -73 61 -97 61v172c24 0 97 7 97 67v216c0 96 75 138 153 138h128z" />
    <glyph glyph-name="bar" unicode="|" 
d="M186 750h183v-1000h-183v1000z" />
    <glyph glyph-name="braceright" unicode="}" horiz-adv-x="554" 
d="M71 614v126h128c78 0 153 -42 153 -138v-216c0 -60 73 -67 97 -67v-172c-24 0 -97 -6 -97 -61v-212c0 -96 -75 -138 -153 -138h-128v126h55c54 0 58 38 58 65v212c1 73 108 94 108 96c-35 3 -107 10 -108 105v209c0 27 -4 65 -58 65h-55z" />
    <glyph glyph-name="asciitilde" unicode="~" horiz-adv-x="600" 
d="M497 377l36 -158c-32 -43 -65 -88 -127 -88c-37 0 -69 15 -102 33c-32 18 -69 35 -115 35c-44 0 -68 -36 -86 -69l-36 156c24 44 60 89 127 89c34 0 73 -15 111 -32c37 -16 75 -36 102 -36c40 0 65 36 90 70z" />
    <glyph glyph-name="exclamdown" unicode="&#xa1;" horiz-adv-x="333" 
d="M81 385v170h171v-170h-171zM81 -185v496h171v-496h-171z" />
    <glyph glyph-name="cent" unicode="&#xa2;" horiz-adv-x="618" 
d="M378 31h-137v105c-145 49 -178 167 -179 237c0 87 49 201 179 242v105h131v-101c121 -33 178 -134 184 -199h-172c-14 25 -42 40 -71 40c-45 0 -86 -36 -86 -85c0 -46 37 -84 86 -84c38 0 56 20 67 34h176c-14 -74 -71 -165 -178 -189v-105z" />
    <glyph glyph-name="sterling" unicode="&#xa3;" horiz-adv-x="618" 
d="M413 417v-133h-77c17 -20 33 -40 33 -69c0 -32 -20 -50 -39 -67h41c14 0 34 1 51 10c17 10 31 27 31 58c0 10 -1 17 -7 36h161c5 -16 11 -32 11 -64c0 -30 -12 -77 -46 -117c-33 -39 -88 -71 -173 -71h-355v148h49c48 0 91 6 91 54c0 35 -30 66 -42 82h-128v133h48
c-18 27 -28 58 -28 94c0 115 98 244 266 244c142 0 256 -93 262 -247h-174c-3 28 -16 81 -85 81c-50 0 -80 -44 -80 -83c0 -48 20 -72 34 -89h156z" />
    <glyph glyph-name="fraction" unicode="&#x2044;" horiz-adv-x="211" 
d="M-118 0l310 740h137l-311 -740h-136z" />
    <glyph glyph-name="yen" unicode="&#xa5;" horiz-adv-x="618" 
d="M598 523v-138h-170l-26 -49v-30h196v-139h-197v-167h-186v167h-196v139h196v27l-26 52h-168v138h99l-119 217h200l109 -237l111 237h197l-117 -217h97z" />
    <glyph glyph-name="florin" unicode="&#x192;" horiz-adv-x="618" 
d="M424 527h73v-125h-95l-54 -314c-15 -82 -26 -143 -71 -200c-54 -67 -136 -92 -205 -92c-7 0 -36 0 -54 6l26 148c8 -1 11 -2 18 -2c84 0 101 48 113 118l57 336h-72v125h94c10 75 35 122 74 163c39 40 93 64 167 64c8 0 28 0 42 -3l-22 -133c-11 0 -20 -1 -28 -3
c-22 -5 -36 -16 -46 -32c-9 -15 -13 -35 -17 -56z" />
    <glyph glyph-name="section" unicode="&#xa7;" horiz-adv-x="670" 
d="M584 548h-163c-14 51 -59 58 -87 58c-25 0 -70 -7 -70 -53c0 -32 34 -48 59 -59l182 -82c49 -22 125 -60 125 -166c0 -78 -45 -120 -86 -158c21 -29 51 -69 51 -141c0 -106 -79 -218 -250 -218c-67 0 -264 30 -280 236h164c14 -84 88 -85 113 -85c69 0 90 40 90 65
c0 40 -46 61 -88 80l-171 79c-50 23 -133 61 -133 180c0 19 0 91 95 161c-19 30 -31 65 -31 111c0 141 126 198 239 198c153 0 237 -102 241 -206zM483 218v1c0 28 -25 46 -68 65l-185 83c-39 -19 -39 -48 -39 -55c0 -39 33 -54 53 -63l202 -93c22 14 37 36 37 62z" />
    <glyph glyph-name="currency" unicode="&#xa4;" horiz-adv-x="618" 
d="M537 38l-82 83c-42 -28 -92 -44 -146 -44c-53 0 -102 16 -145 44l-83 -82l-81 80l85 85c-25 40 -39 86 -39 136c0 53 16 103 42 143l-88 86l82 82l88 -88c41 26 88 40 139 40c50 0 98 -14 137 -39l88 86l80 -81l-85 -85c27 -42 43 -91 43 -144c0 -50 -14 -97 -38 -136
l84 -84zM201 341v-1c0 -59 48 -109 108 -109c59 0 108 49 108 110c0 60 -47 110 -108 110s-108 -51 -108 -110z" />
    <glyph glyph-name="quotesingle" unicode="'" horiz-adv-x="242" 
d="M183 444h-124v296h124v-296z" />
    <glyph glyph-name="quotedblleft" unicode="&#x201c;" 
d="M265 740l84 -250h-120l-106 250h142zM450 740l84 -250h-120l-106 250h142z" />
    <glyph glyph-name="guillemotleft" unicode="&#xab;" horiz-adv-x="422" 
d="M24 284l98 182h116l-98 -182l98 -182h-116zM206 284l98 182h116l-98 -182l98 -182h-116z" />
    <glyph glyph-name="guilsinglleft" unicode="&#x2039;" horiz-adv-x="222" 
d="M8 284l98 182h116l-98 -182l98 -182h-116z" />
    <glyph glyph-name="guilsinglright" unicode="&#x203a;" horiz-adv-x="222" 
d="M116 466l98 -182l-98 -182h-116l98 182l-98 182h116z" />
    <glyph glyph-name="endash" unicode="&#x2013;" horiz-adv-x="500" 
d="M35 370h430v-163h-430v163z" />
    <glyph glyph-name="dagger" unicode="&#x2020;" horiz-adv-x="670" 
d="M418 740v-177h154v-140h-154v-667h-165v667h-155v140h155v177h165z" />
    <glyph glyph-name="daggerdbl" unicode="&#x2021;" horiz-adv-x="670" 
d="M418 740v-147h154v-140h-154v-326h154v-140h-154v-231h-165v231h-155v140h155v326h-155v140h155v147h165z" />
    <glyph glyph-name="periodcentered" unicode="&#xb7;" horiz-adv-x="314" 
d="M244 338v-170h-173v170h173z" />
    <glyph glyph-name="paragraph" unicode="&#xb6;" horiz-adv-x="701" 
d="M205 -103v458c-122 0 -212 62 -212 189c0 189 181 196 254 196h360v-118h-49v-725h-128v725h-97v-725h-128z" />
    <glyph glyph-name="bullet" unicode="&#x2022;" horiz-adv-x="739" 
d="M371 532h1c82 0 150 -70 150 -155c0 -86 -69 -155 -152 -155c-85 0 -153 71 -153 155c0 82 65 155 154 155z" />
    <glyph glyph-name="quotesinglbase" unicode="&#x201a;" horiz-adv-x="314" 
d="M2 -102l84 250h142l-106 -250h-120z" />
    <glyph glyph-name="quotedblbase" unicode="&#x201e;" 
d="M21 -102l84 250h142l-106 -250h-120zM206 -102l84 250h142l-106 -250h-120z" />
    <glyph glyph-name="quotedblright" unicode="&#x201d;" 
d="M21 490l84 250h142l-106 -250h-120zM206 490l84 250h142l-106 -250h-120z" />
    <glyph glyph-name="guillemotright" unicode="&#xbb;" horiz-adv-x="422" 
d="M300 466l98 -182l-98 -182h-116l98 182l-98 182h116zM118 466l98 -182l-98 -182h-116l98 182l-98 182h116z" />
    <glyph glyph-name="ellipsis" unicode="&#x2026;" horiz-adv-x="1000" 
d="M81 0v170h173v-170h-173zM414 0v170h173v-170h-173zM747 0v170h173v-170h-173z" />
    <glyph glyph-name="perthousand" unicode="&#x2030;" horiz-adv-x="1258" 
d="M36 574v1c0 99 81 180 180 180c100 0 180 -81 180 -181s-81 -180 -180 -180c-98 0 -180 80 -180 180zM147 574v-1c0 -36 31 -68 69 -68c36 0 69 30 69 70c0 39 -31 69 -69 69s-69 -30 -69 -70zM461 166v1c0 99 81 180 181 180c99 0 180 -81 180 -181
c0 -101 -83 -181 -180 -181c-98 0 -181 79 -181 181zM572 166v-1c0 -37 31 -69 70 -69c37 0 69 31 69 70c0 40 -32 70 -69 70c-40 0 -70 -32 -70 -70zM861 166v1c0 99 81 180 181 180c99 0 180 -81 180 -181c0 -101 -83 -181 -180 -181c-98 0 -181 79 -181 181zM972 166v-1
c0 -37 31 -69 70 -69c37 0 69 31 69 70c0 40 -32 70 -69 70c-40 0 -70 -32 -70 -70zM638 740l-307 -740h-115l306 740h116z" />
    <glyph glyph-name="questiondown" unicode="&#xbf;" horiz-adv-x="592" 
d="M231 385v170h174v-170h-174zM231 319h174c-1 -70 -38 -113 -104 -176c-50 -49 -68 -79 -68 -110c0 -36 17 -62 58 -62c55 0 66 40 68 75c1 7 1 14 1 21h183c1 -9 1 -13 1 -18c0 -144 -110 -249 -263 -249c-156 0 -240 113 -240 212c0 92 59 146 113 196
c65 60 74 80 77 111z" />
    <glyph glyph-name="grave" unicode="`" 
d="M162 839l242 -128l-46 -97l-247 108z" />
    <glyph glyph-name="acute" unicode="&#xb4;" 
d="M151 719l240 129l53 -118l-246 -109z" />
    <glyph glyph-name="circumflex" unicode="&#x2c6;" 
d="M334 806l160 -166h-160l-56 57l-56 -57h-162l166 166h108z" />
    <glyph glyph-name="tilde" unicode="&#x2dc;" 
d="M425 788l55 -110c-35 -22 -70 -37 -113 -37c-17 0 -49 7 -81 13c-32 7 -64 13 -79 13c-34 0 -54 -10 -77 -24l-55 113c25 14 67 35 110 35c27 0 54 -6 81 -12c27 -7 53 -13 81 -13c36 0 58 7 78 22z" />
    <glyph glyph-name="macron" unicode="&#xaf;" 
d="M457 784v-126h-359v126h359z" />
    <glyph glyph-name="breve" unicode="&#x2d8;" 
d="M71 788h123c12 -14 23 -23 37 -28c13 -5 30 -7 51 -7c15 0 60 5 78 35h123c-8 -108 -116 -153 -206 -153c-113 0 -198 59 -206 153z" />
    <glyph glyph-name="dotaccent" unicode="&#x2d9;" 
d="M357 795v-151h-159v151h159z" />
    <glyph glyph-name="dieresis" unicode="&#xa8;" 
d="M240 795v-151h-159v151h159zM473 795v-151h-159v151h159z" />
    <glyph glyph-name="ring" unicode="&#x2da;" 
d="M277 852h1c69 0 125 -57 125 -126s-56 -126 -126 -126s-126 57 -126 126s56 126 126 126zM277 771h-1c-25 0 -43 -21 -43 -45s20 -43 44 -43s44 19 44 44c0 24 -19 44 -44 44z" />
    <glyph glyph-name="cedilla" unicode="&#xb8;" 
d="M311 0l-29 -53c6 2 13 3 21 3c38 0 85 -27 85 -91c0 -50 -36 -104 -112 -104c-17 0 -97 5 -109 94h76c5 -13 10 -28 33 -28s36 16 36 38c0 21 -15 34 -34 34c-13 0 -21 -7 -27 -15l-65 35l42 87h83z" />
    <glyph glyph-name="hungarumlaut" unicode="&#x2dd;" 
d="M79 700l144 150l95 -95l-158 -136zM319 700l144 150l95 -95l-158 -136z" />
    <glyph glyph-name="ogonek" unicode="&#x2db;" 
d="M258 0h84c-16 -9 -57 -32 -57 -68c0 -25 22 -48 48 -48c15 0 27 4 47 12v-86c-25 -8 -50 -16 -86 -16c-80 0 -119 46 -119 97c0 35 17 64 83 109z" />
    <glyph glyph-name="caron" unicode="&#x2c7;" 
d="M60 799h161l56 -57l56 57h161l-165 -166h-108z" />
    <glyph glyph-name="emdash" unicode="&#x2014;" horiz-adv-x="1000" 
d="M35 370h930v-163h-930v163z" />
    <glyph glyph-name="AE" unicode="&#xc6;" horiz-adv-x="975" 
d="M-10 0l514 740h421v-166h-228v-115h221v-166h-221v-127h228v-166h-411v124h-215l-80 -124h-229zM376 270h138v201z" />
    <glyph glyph-name="ordfeminine" unicode="&#xaa;" horiz-adv-x="385" 
d="M341 744v-286h-99v29c-18 -33 -50 -39 -75 -39c-80 0 -140 67 -140 153c0 98 69 153 142 153c35 0 58 -13 73 -39v29h99zM126 601v-1c0 -21 16 -58 58 -58c29 0 45 16 53 33c4 9 6 18 6 26c0 11 -1 18 -5 28c-6 16 -24 31 -54 31c-40 0 -58 -33 -58 -59z" />
    <glyph glyph-name="Lslash" unicode="&#x141;" horiz-adv-x="487" 
d="M7 158v188l65 47v347h189v-211l109 78v-188l-109 -78v-175h219v-166h-408v205z" />
    <glyph glyph-name="Oslash" unicode="&#xd8;" horiz-adv-x="851" 
d="M593 719l30 41h182l-94 -126c34 -37 105 -124 105 -264c0 -205 -162 -384 -392 -384c-87 0 -139 23 -167 35l-32 -41h-182l95 127c-39 42 -103 125 -103 263c0 216 169 384 391 384c47 0 107 -7 167 -35zM251 258l237 320c-10 4 -30 10 -62 10
c-136 0 -202 -118 -202 -215c0 -43 12 -87 27 -115zM598 484l-237 -321c11 -4 32 -11 66 -11c138 0 200 125 200 217c0 35 -7 74 -29 115z" />
    <glyph glyph-name="OE" unicode="&#x152;" horiz-adv-x="1085" 
d="M805 574v-115h222v-166h-222v-127h230v-166h-412v25v24c-75 -54 -149 -63 -204 -63c-221 0 -384 177 -384 382c0 194 144 386 389 386c112 0 167 -40 199 -63v25v24h412v-166h-230zM224 368v-1c0 -85 57 -215 198 -215c132 0 200 112 200 221c0 118 -77 215 -199 215
c-135 0 -199 -116 -199 -220z" />
    <glyph glyph-name="ordmasculine" unicode="&#xba;" horiz-adv-x="385" 
d="M37 601v1c0 70 50 152 155 152s155 -82 155 -153s-50 -153 -155 -153s-155 82 -155 153zM136 601v-1c0 -33 26 -58 56 -58s56 25 56 59s-26 59 -56 59s-56 -25 -56 -59z" />
    <glyph glyph-name="ae" unicode="&#xe6;" horiz-adv-x="1091" 
d="M1055 226h-417c12 -81 81 -104 127 -104c59 0 87 30 108 53h167c-22 -52 -53 -100 -96 -135c-43 -36 -98 -58 -167 -58c-63 0 -119 29 -150 73v-55h-151v55c-33 -49 -91 -73 -160 -73c-185 0 -282 168 -282 295c0 166 118 297 286 297c63 0 134 -30 156 -73v54h151v-53
c36 48 96 72 154 72c69 0 138 -28 190 -80c53 -52 99 -144 84 -268zM200 281v-1c0 -86 63 -143 141 -143c77 0 135 62 135 139c0 41 -13 76 -37 102c-25 26 -60 41 -104 41c-101 0 -135 -95 -135 -138zM642 336h253c-20 73 -70 97 -124 97c-43 0 -74 -15 -95 -35
c-20 -20 -31 -44 -34 -62z" />
    <glyph glyph-name="dotlessi" unicode="&#x131;" horiz-adv-x="286" 
d="M60 0v555h166v-555h-166z" />
    <glyph glyph-name="lslash" unicode="&#x142;" horiz-adv-x="342" 
d="M86 226l-61 -39v172l61 39v342h166v-235l65 42v-172l-65 -42v-333h-166v226z" />
    <glyph glyph-name="oslash" unicode="&#xf8;" horiz-adv-x="666" 
d="M482 588h164l-85 -115c46 -55 71 -124 71 -195c0 -140 -100 -296 -298 -296c-62 0 -102 15 -121 23l-29 -38h-164l84 112c-42 48 -70 120 -70 197c0 139 97 297 300 297c64 0 107 -17 121 -23zM213 216l148 199c-6 1 -15 3 -27 3c-75 0 -134 -61 -134 -140
c0 -31 8 -51 13 -62zM454 336l-146 -196c6 -1 13 -3 25 -3c84 0 133 70 133 141c0 30 -8 48 -12 58z" />
    <glyph glyph-name="oe" unicode="&#x153;" horiz-adv-x="1076" 
d="M1040 226h-416c6 -59 52 -104 124 -104c58 0 85 26 108 51h170c-14 -33 -42 -81 -86 -121c-45 -40 -106 -71 -188 -71c-128 0 -186 70 -208 100c-23 -29 -79 -100 -216 -100c-161 0 -294 127 -294 295c0 155 113 298 302 298c90 0 172 -45 208 -95c36 50 118 95 208 95
c81 0 154 -33 207 -87c66 -67 100 -168 81 -261zM200 277v-1c0 -75 59 -140 135 -140c87 0 132 79 132 142c0 71 -54 141 -133 141c-63 0 -134 -50 -134 -142zM629 337h250c-14 61 -65 96 -125 96s-114 -36 -125 -96z" />
    <glyph glyph-name="germandbls" unicode="&#xdf;" horiz-adv-x="694" 
d="M58 0v427c0 118 11 176 64 235c58 65 143 97 219 97c140 0 235 -102 235 -209c0 -82 -50 -115 -71 -129c81 -20 155 -94 155 -193c0 -121 -100 -246 -258 -246c-99 0 -145 48 -178 82v-64h-166zM224 474v-265h93c7 -25 21 -72 86 -72c58 0 91 46 91 90c0 18 -2 41 -20 60
s-52 33 -117 33h-65v125h34c52 0 84 32 84 76c0 50 -36 83 -88 83c-49 0 -73 -26 -86 -56c-12 -29 -12 -62 -12 -74z" />
    <glyph glyph-name="onesuperior" unicode="&#xb9;" horiz-adv-x="407" 
d="M270 740v-444h-123v338h-78v106h201z" />
    <glyph glyph-name="logicalnot" unicode="&#xac;" horiz-adv-x="600" 
d="M46 445h508v-337h-160v177h-348v160z" />
    <glyph glyph-name="mu" unicode="&#xb5;" horiz-adv-x="634" 
d="M52 -190v745h166v-274c0 -35 5 -71 20 -99c15 -27 40 -45 78 -45c39 0 63 18 78 45c16 28 21 64 21 99v274h166v-555h-158v69c-10 -22 -40 -79 -105 -79c-55 0 -86 31 -100 54v-48v-186h-166z" />
    <glyph glyph-name="trademark" unicode="&#x2122;" horiz-adv-x="990" 
d="M386 296v444h159l89 -277l86 277h159v-444h-117v301l-87 -301h-84l-88 299v-299h-117zM112 296v338h-91v106h307v-106h-90v-338h-126z" />
    <glyph glyph-name="Eth" unicode="&#xd0;" horiz-adv-x="742" 
d="M67 462v278h249c83 0 224 0 323 -138c51 -70 68 -149 68 -230c0 -202 -116 -372 -361 -372h-279v296h-67v166h67zM256 574v-112h108v-166h-108v-130h81c141 0 181 98 181 203c0 42 -9 95 -36 137c-22 33 -60 68 -144 68h-82z" />
    <glyph glyph-name="onehalf" unicode="&#xbd;" horiz-adv-x="920" 
d="M249 740v-444h-123v338h-78v106h201zM635 740l-311 -740h-136l310 740h137zM872 106v-106h-341v97l135 111s65 63 65 96c0 28 -13 42 -38 42c-37 0 -44 -42 -44 -68h-123c1 31 3 68 29 106c41 59 97 69 145 69c112 0 170 -47 170 -134c0 -60 -17 -94 -64 -135l-90 -78
h156z" />
    <glyph glyph-name="plusminus" unicode="&#xb1;" horiz-adv-x="600" 
d="M220 420v136h160v-136h172v-160h-172v-130h-160v130h-172v160h172zM48 -82v160h504v-160h-504z" />
    <glyph glyph-name="Thorn" unicode="&#xde;" horiz-adv-x="636" 
d="M67 0v740h189v-97l53 1c137 0 188 -21 228 -54c58 -48 87 -121 87 -196s-31 -154 -78 -194c-51 -43 -101 -64 -216 -64h-74v-136h-189zM256 478v-176h69c18 0 48 0 73 11s45 34 45 78s-21 65 -47 76s-57 11 -78 11h-62z" />
    <glyph glyph-name="onequarter" unicode="&#xbc;" horiz-adv-x="900" 
d="M635 740l-311 -740h-136l310 740h137zM799 444v-273h52v-94h-52v-77h-123v77h-209v86l214 281h118zM249 740v-444h-123v338h-78v106h201zM678 288l-79 -117h79v117z" />
    <glyph glyph-name="divide" unicode="&#xf7;" horiz-adv-x="600" 
d="M378 563v-160h-157v160h157zM48 173v160h504v-160h-504zM378 103v-160h-157v160h157z" />
    <glyph glyph-name="brokenbar" unicode="&#xa6;" 
d="M186 675h183v-350h-183v350zM186 175h183v-350h-183v350z" />
    <glyph glyph-name="degree" unicode="&#xb0;" horiz-adv-x="400" 
d="M343 569v-1c0 -79 -63 -142 -143 -142s-143 63 -143 143s63 143 143 143s143 -63 143 -143zM141 569v-1c0 -32 27 -60 59 -60s59 28 59 61c0 32 -27 61 -59 61s-59 -29 -59 -61z" />
    <glyph glyph-name="thorn" unicode="&#xfe;" horiz-adv-x="695" 
d="M59 -185v925h166v-178v-56c27 26 70 67 165 67c198 0 273 -172 273 -301c0 -160 -113 -291 -271 -291c-103 0 -148 49 -167 69v-70v-165h-166zM497 277v1c0 65 -48 140 -140 140c-46 0 -81 -19 -104 -46c-24 -27 -36 -62 -36 -95c0 -35 13 -70 37 -97
c24 -26 59 -44 103 -44c88 0 140 71 140 141z" />
    <glyph glyph-name="threequarters" unicode="&#xbe;" horiz-adv-x="1000" 
d="M786 292l-84 -121h84v121zM748 740l-311 -740h-136l310 740h137zM907 444v-273h52v-94h-52v-77h-123v77h-209v86l214 281h118zM41 433h129c4 -15 10 -38 50 -38c31 0 48 16 48 43c0 17 -13 38 -49 38h-55v90h24c15 0 60 0 60 42c0 14 -7 33 -32 33c-34 0 -35 -23 -36 -35
h-126c1 121 114 143 166 143c95 0 152 -60 152 -123c0 -17 -4 -63 -57 -92c52 -17 83 -59 83 -106c0 -78 -82 -141 -179 -141c-58 0 -120 21 -150 62c-23 31 -26 64 -28 84z" />
    <glyph glyph-name="twosuperior" unicode="&#xb2;" horiz-adv-x="407" 
d="M376 402v-106h-341v97l135 111s65 63 65 96c0 28 -13 42 -38 42c-37 0 -44 -42 -44 -68h-123c1 31 3 68 29 106c41 59 97 69 145 69c112 0 170 -47 170 -134c0 -60 -17 -94 -64 -135l-90 -78h156z" />
    <glyph glyph-name="registered" unicode="&#xae;" horiz-adv-x="800" 
d="M403 754h1c211 0 379 -177 379 -384c0 -212 -172 -384 -382 -384c-211 0 -383 173 -383 384c0 206 166 384 385 384zM402 677h-1c-169 0 -300 -139 -300 -307c0 -170 136 -307 300 -307s299 135 299 307c0 165 -129 307 -298 307zM237 587h180c82 0 156 -34 156 -120
c0 -35 -12 -77 -69 -103c31 -13 57 -34 61 -99c5 -74 5 -82 13 -104h-103c-8 15 -12 88 -14 102c-3 24 -9 62 -76 62h-42v-164h-106v426zM400 514h-57v-120h51c22 0 73 0 73 65c0 54 -45 55 -67 55z" />
    <glyph glyph-name="minus" unicode="&#x2212;" horiz-adv-x="600" 
d="M48 173v160h504v-160h-504z" />
    <glyph glyph-name="eth" unicode="&#xf0;" horiz-adv-x="666" 
d="M335 600l-235 -50v105l117 20c-27 15 -62 25 -92 35l170 46c22 -8 52 -21 95 -44l210 44v-105l-100 -16c16 -15 55 -56 84 -112c30 -57 48 -138 48 -208c0 -190 -117 -332 -299 -332c-166 0 -299 117 -299 293c0 189 131 289 256 289c40 0 85 -15 117 -44
c-4 10 -9 19 -19 32c-15 18 -38 38 -53 47zM200 279v-1c0 -68 42 -140 135 -140c95 0 131 83 131 141c0 62 -40 141 -128 141c-99 0 -138 -75 -138 -141z" />
    <glyph glyph-name="multiply" unicode="&#xd7;" horiz-adv-x="600" 
d="M169 0l-113 113l130 130l-130 130l113 113l130 -130l131 131l114 -114l-131 -130l129 -130l-113 -113l-129 129z" />
    <glyph glyph-name="threesuperior" unicode="&#xb3;" horiz-adv-x="407" 
d="M22 433h129c4 -15 10 -38 50 -38c31 0 48 16 48 43c0 17 -13 38 -49 38h-55v90h24c15 0 60 0 60 42c0 14 -7 33 -32 33c-34 0 -35 -23 -36 -35h-126c1 121 114 143 166 143c95 0 152 -60 152 -123c0 -17 -4 -63 -57 -92c52 -17 83 -59 83 -106c0 -78 -82 -141 -179 -141
c-58 0 -120 21 -150 62c-23 31 -26 64 -28 84z" />
    <glyph glyph-name="copyright" unicode="&#xa9;" horiz-adv-x="800" 
d="M403 754h1c211 0 379 -176 379 -384c0 -212 -172 -384 -382 -384c-211 0 -383 173 -383 384c0 207 166 384 385 384zM402 677h-1c-170 0 -300 -140 -300 -307c0 -171 136 -307 300 -307s299 135 299 307c0 166 -130 307 -298 307zM595 436h-105c-16 60 -56 68 -84 68
c-84 0 -107 -75 -107 -132c0 -69 32 -130 107 -130c11 0 70 0 87 87h106c-9 -111 -86 -179 -197 -179c-131 0 -210 95 -210 223c0 116 74 223 213 223c119 0 185 -84 190 -160z" />
    <glyph glyph-name="Aacute" unicode="&#xc1;" horiz-adv-x="758" 
d="M248 107l-34 -107h-205l293 740h163l284 -740h-207l-35 107h-259zM458 257l-83 258l-80 -258h163zM253 864l240 129l53 -118l-246 -109z" />
    <glyph glyph-name="Acircumflex" unicode="&#xc2;" horiz-adv-x="758" 
d="M248 107l-34 -107h-205l293 740h163l284 -740h-207l-35 107h-259zM458 257l-83 258l-80 -258h163zM436 951l160 -166h-160l-56 57l-56 -57h-162l166 166h108z" />
    <glyph glyph-name="Adieresis" unicode="&#xc4;" horiz-adv-x="758" 
d="M248 107l-34 -107h-205l293 740h163l284 -740h-207l-35 107h-259zM458 257l-83 258l-80 -258h163zM342 940v-151h-159v151h159zM575 940v-151h-159v151h159z" />
    <glyph glyph-name="Agrave" unicode="&#xc0;" horiz-adv-x="758" 
d="M248 107l-34 -107h-205l293 740h163l284 -740h-207l-35 107h-259zM458 257l-83 258l-80 -258h163zM264 984l242 -128l-46 -97l-247 108z" />
    <glyph glyph-name="Aring" unicode="&#xc5;" horiz-adv-x="758" 
d="M248 107l-34 -107h-205l293 740h163l284 -740h-207l-35 107h-259zM458 257l-83 258l-80 -258h163zM379 1017h1c69 0 125 -57 125 -126s-56 -126 -126 -126s-126 57 -126 126s56 126 126 126zM379 936h-1c-25 0 -43 -21 -43 -45s20 -43 44 -43s44 19 44 44
c0 24 -19 44 -44 44z" />
    <glyph glyph-name="Atilde" unicode="&#xc3;" horiz-adv-x="758" 
d="M248 107l-34 -107h-205l293 740h163l284 -740h-207l-35 107h-259zM458 257l-83 258l-80 -258h163zM527 953l55 -110c-35 -22 -70 -37 -113 -37c-17 0 -49 7 -81 13c-32 7 -64 13 -79 13c-34 0 -54 -10 -77 -24l-55 113c25 14 67 35 110 35c27 0 54 -6 81 -12
c27 -7 53 -13 81 -13c36 0 58 7 78 22z" />
    <glyph glyph-name="Ccedilla" unicode="&#xc7;" horiz-adv-x="832" 
d="M444 -13l-22 -40c6 2 13 3 21 3c34 0 85 -27 85 -91c0 -50 -36 -104 -112 -104c-17 0 -97 5 -109 94h76c5 -13 10 -28 33 -28s36 16 36 38c0 21 -15 34 -34 34c-13 0 -21 -7 -27 -15l-65 35l38 78c-197 29 -327 198 -327 380c0 189 146 383 388 383
c232 0 356 -179 376 -295h-198c-21 55 -77 129 -179 129c-127 0 -198 -111 -198 -216c0 -112 76 -220 199 -220c118 0 166 99 178 125h198c-42 -169 -185 -283 -357 -290z" />
    <glyph glyph-name="Eacute" unicode="&#xc9;" horiz-adv-x="528" 
d="M67 0v740h419v-166h-230v-115h223v-166h-223v-127h230v-166h-419zM138 884l240 129l53 -118l-246 -109z" />
    <glyph glyph-name="Ecircumflex" unicode="&#xca;" horiz-adv-x="528" 
d="M67 0v740h419v-166h-230v-115h223v-166h-223v-127h230v-166h-419zM321 971l160 -166h-160l-56 57l-56 -57h-162l166 166h108z" />
    <glyph glyph-name="Edieresis" unicode="&#xcb;" horiz-adv-x="528" 
d="M67 0v740h419v-166h-230v-115h223v-166h-223v-127h230v-166h-419zM227 960v-151h-159v151h159zM460 960v-151h-159v151h159z" />
    <glyph glyph-name="Egrave" unicode="&#xc8;" horiz-adv-x="528" 
d="M67 0v740h419v-166h-230v-115h223v-166h-223v-127h230v-166h-419zM149 1004l242 -128l-46 -97l-247 108z" />
    <glyph glyph-name="Iacute" unicode="&#xcd;" horiz-adv-x="323" 
d="M67 0v740h189v-740h-189zM60 884l240 129l53 -118l-246 -109z" />
    <glyph glyph-name="Icircumflex" unicode="&#xce;" horiz-adv-x="323" 
d="M67 0v740h189v-740h-189zM218 971l160 -166h-160l-56 57l-56 -57h-162l166 166h108z" />
    <glyph glyph-name="Idieresis" unicode="&#xcf;" horiz-adv-x="323" 
d="M67 0v740h189v-740h-189zM124 960v-151h-159v151h159zM357 960v-151h-159v151h159z" />
    <glyph glyph-name="Igrave" unicode="&#xcc;" horiz-adv-x="323" 
d="M67 0v740h189v-740h-189zM21 1004l242 -128l-46 -97l-247 108z" />
    <glyph glyph-name="Ntilde" unicode="&#xd1;" horiz-adv-x="759" 
d="M230 740l284 -451l-4 451h181v-740h-164l-283 446l4 -446h-181v740h163zM527 953l55 -110c-35 -22 -70 -37 -113 -37c-17 0 -49 7 -81 13c-32 7 -64 13 -79 13c-34 0 -54 -10 -77 -24l-55 113c25 14 67 35 110 35c27 0 54 -6 81 -12c27 -7 53 -13 81 -13c36 0 58 7 78 22
z" />
    <glyph glyph-name="Oacute" unicode="&#xd3;" horiz-adv-x="851" 
d="M35 361v1c0 242 186 392 390 392c228 0 391 -178 391 -384s-162 -384 -392 -384c-233 0 -389 185 -389 375zM224 372v-1c0 -113 77 -219 204 -219c134 0 199 122 199 217c0 96 -65 219 -201 219c-131 0 -202 -112 -202 -216zM299 884l240 129l53 -118l-246 -109z" />
    <glyph glyph-name="Ocircumflex" unicode="&#xd4;" horiz-adv-x="851" 
d="M35 361v1c0 242 186 392 390 392c228 0 391 -178 391 -384s-162 -384 -392 -384c-233 0 -389 185 -389 375zM224 372v-1c0 -113 77 -219 204 -219c134 0 199 122 199 217c0 96 -65 219 -201 219c-131 0 -202 -112 -202 -216zM482 971l160 -166h-160l-56 57l-56 -57h-162
l166 166h108z" />
    <glyph glyph-name="Odieresis" unicode="&#xd6;" horiz-adv-x="851" 
d="M35 361v1c0 242 186 392 390 392c228 0 391 -178 391 -384s-162 -384 -392 -384c-233 0 -389 185 -389 375zM224 372v-1c0 -113 77 -219 204 -219c134 0 199 122 199 217c0 96 -65 219 -201 219c-131 0 -202 -112 -202 -216zM388 960v-151h-159v151h159zM621 960v-151
h-159v151h159z" />
    <glyph glyph-name="Ograve" unicode="&#xd2;" horiz-adv-x="851" 
d="M35 361v1c0 242 186 392 390 392c228 0 391 -178 391 -384s-162 -384 -392 -384c-233 0 -389 185 -389 375zM224 372v-1c0 -113 77 -219 204 -219c134 0 199 122 199 217c0 96 -65 219 -201 219c-131 0 -202 -112 -202 -216zM310 1004l242 -128l-46 -97l-247 108z" />
    <glyph glyph-name="Otilde" unicode="&#xd5;" horiz-adv-x="851" 
d="M35 361v1c0 242 186 392 390 392c228 0 391 -178 391 -384s-162 -384 -392 -384c-233 0 -389 185 -389 375zM224 372v-1c0 -113 77 -219 204 -219c134 0 199 122 199 217c0 96 -65 219 -201 219c-131 0 -202 -112 -202 -216zM573 953l55 -110c-35 -22 -70 -37 -113 -37
c-17 0 -49 7 -81 13c-32 7 -64 13 -79 13c-34 0 -54 -10 -77 -24l-55 113c25 14 67 35 110 35c27 0 54 -6 81 -12c27 -7 53 -13 81 -13c36 0 58 7 78 22z" />
    <glyph glyph-name="Scaron" unicode="&#x160;" horiz-adv-x="573" 
d="M25 245h188c0 -86 53 -101 77 -101c45 0 72 37 72 71c0 39 -31 51 -145 99c-52 21 -181 73 -181 212c0 149 135 228 259 228c102 0 246 -52 249 -230h-187c-4 25 -10 72 -68 72c-33 0 -65 -23 -65 -58c0 -34 20 -43 153 -103c138 -62 173 -126 173 -212
c0 -118 -62 -237 -258 -237c-194 0 -272 114 -267 259zM69 964h161l56 -57l56 57h161l-165 -166h-108z" />
    <glyph glyph-name="Uacute" unicode="&#xda;" horiz-adv-x="698" 
d="M65 740h189v-447c0 -25 1 -60 13 -89c13 -29 37 -52 83 -52c47 0 71 21 82 48c12 28 12 64 12 93v447h189v-447c0 -124 -27 -179 -74 -227c-48 -49 -115 -80 -207 -80c-54 0 -152 13 -213 79c-61 67 -74 119 -74 228v447zM258 884l240 129l53 -118l-246 -109z" />
    <glyph glyph-name="Ucircumflex" unicode="&#xdb;" horiz-adv-x="698" 
d="M65 740h189v-447c0 -25 1 -60 13 -89c13 -29 37 -52 83 -52c47 0 71 21 82 48c12 28 12 64 12 93v447h189v-447c0 -124 -27 -179 -74 -227c-48 -49 -115 -80 -207 -80c-54 0 -152 13 -213 79c-61 67 -74 119 -74 228v447zM406 971l160 -166h-160l-56 57l-56 -57h-162
l166 166h108z" />
    <glyph glyph-name="Udieresis" unicode="&#xdc;" horiz-adv-x="698" 
d="M65 740h189v-447c0 -25 1 -60 13 -89c13 -29 37 -52 83 -52c47 0 71 21 82 48c12 28 12 64 12 93v447h189v-447c0 -124 -27 -179 -74 -227c-48 -49 -115 -80 -207 -80c-54 0 -152 13 -213 79c-61 67 -74 119 -74 228v447zM312 960v-151h-159v151h159zM545 960v-151h-159
v151h159z" />
    <glyph glyph-name="Ugrave" unicode="&#xd9;" horiz-adv-x="698" 
d="M65 740h189v-447c0 -25 1 -60 13 -89c13 -29 37 -52 83 -52c47 0 71 21 82 48c12 28 12 64 12 93v447h189v-447c0 -124 -27 -179 -74 -227c-48 -49 -115 -80 -207 -80c-54 0 -152 13 -213 79c-61 67 -74 119 -74 228v447zM199 1004l242 -128l-46 -97l-247 108z" />
    <glyph glyph-name="Yacute" unicode="&#xdd;" horiz-adv-x="647" 
d="M230 0v269l-221 471h205l110 -297l111 297h203l-219 -471v-269h-189zM232 884l240 129l53 -118l-246 -109z" />
    <glyph glyph-name="Ydieresis" unicode="&#x178;" horiz-adv-x="647" 
d="M230 0v269l-221 471h205l110 -297l111 297h203l-219 -471v-269h-189zM286 960v-151h-159v151h159zM519 960v-151h-159v151h159z" />
    <glyph glyph-name="Zcaron" unicode="&#x17d;" horiz-adv-x="499" 
d="M483 587l-236 -421h236v-166h-467v124l255 450h-255v166h467v-153zM37 954h161l56 -57l56 57h161l-165 -166h-108z" />
    <glyph glyph-name="aacute" unicode="&#xe1;" horiz-adv-x="704" 
d="M643 555v-555h-166v60c-30 -54 -99 -79 -164 -79c-176 0 -279 138 -279 297c0 182 131 296 279 296c91 0 142 -44 164 -78v59h166zM200 276v-1c0 -51 38 -139 138 -139c59 0 95 28 116 62c14 22 21 46 23 71s-3 50 -14 73c-18 38 -56 77 -126 77
c-95 0 -137 -80 -137 -143zM226 719l240 129l53 -118l-246 -109z" />
    <glyph glyph-name="acircumflex" unicode="&#xe2;" horiz-adv-x="704" 
d="M643 555v-555h-166v60c-30 -54 -99 -79 -164 -79c-176 0 -279 138 -279 297c0 182 131 296 279 296c91 0 142 -44 164 -78v59h166zM200 276v-1c0 -51 38 -139 138 -139c59 0 95 28 116 62c14 22 21 46 23 71s-3 50 -14 73c-18 38 -56 77 -126 77
c-95 0 -137 -80 -137 -143zM394 806l160 -166h-160l-56 57l-56 -57h-162l166 166h108z" />
    <glyph glyph-name="adieresis" unicode="&#xe4;" horiz-adv-x="704" 
d="M643 555v-555h-166v60c-30 -54 -99 -79 -164 -79c-176 0 -279 138 -279 297c0 182 131 296 279 296c91 0 142 -44 164 -78v59h166zM200 276v-1c0 -51 38 -139 138 -139c59 0 95 28 116 62c14 22 21 46 23 71s-3 50 -14 73c-18 38 -56 77 -126 77
c-95 0 -137 -80 -137 -143zM300 795v-151h-159v151h159zM533 795v-151h-159v151h159z" />
    <glyph glyph-name="agrave" unicode="&#xe0;" horiz-adv-x="704" 
d="M643 555v-555h-166v60c-30 -54 -99 -79 -164 -79c-176 0 -279 138 -279 297c0 182 131 296 279 296c91 0 142 -44 164 -78v59h166zM200 276v-1c0 -51 38 -139 138 -139c59 0 95 28 116 62c14 22 21 46 23 71s-3 50 -14 73c-18 38 -56 77 -126 77
c-95 0 -137 -80 -137 -143zM222 839l242 -128l-46 -97l-247 108z" />
    <glyph glyph-name="aring" unicode="&#xe5;" horiz-adv-x="704" 
d="M643 555v-555h-166v60c-30 -54 -99 -79 -164 -79c-176 0 -279 138 -279 297c0 182 131 296 279 296c91 0 142 -44 164 -78v59h166zM200 276v-1c0 -51 38 -139 138 -139c59 0 95 28 116 62c14 22 21 46 23 71s-3 50 -14 73c-18 38 -56 77 -126 77
c-95 0 -137 -80 -137 -143zM332 852h1c69 0 125 -57 125 -126s-56 -126 -126 -126s-126 57 -126 126s56 126 126 126zM332 771h-1c-25 0 -43 -21 -43 -45s20 -43 44 -43s44 19 44 44c0 24 -19 44 -44 44z" />
    <glyph glyph-name="atilde" unicode="&#xe3;" horiz-adv-x="704" 
d="M643 555v-555h-166v60c-30 -54 -99 -79 -164 -79c-176 0 -279 138 -279 297c0 182 131 296 279 296c91 0 142 -44 164 -78v59h166zM200 276v-1c0 -51 38 -139 138 -139c59 0 95 28 116 62c14 22 21 46 23 71s-3 50 -14 73c-18 38 -56 77 -126 77
c-95 0 -137 -80 -137 -143zM490 788l55 -110c-35 -22 -70 -37 -113 -37c-17 0 -49 7 -81 13c-32 7 -64 13 -79 13c-34 0 -54 -10 -77 -24l-55 113c25 14 67 35 110 35c27 0 54 -6 81 -12c27 -7 53 -13 81 -13c36 0 58 7 78 22z" />
    <glyph glyph-name="ccedilla" unicode="&#xe7;" horiz-adv-x="652" 
d="M349 -16l-20 -37c6 2 13 3 21 3c34 0 85 -27 85 -91c0 -50 -36 -104 -112 -104c-17 0 -97 5 -109 94h76c5 -13 10 -28 33 -28s36 16 36 38c0 21 -15 34 -34 34c-13 0 -21 -7 -27 -15l-65 35l36 75c-137 28 -236 147 -236 291c0 163 127 295 293 295
c147 0 266 -97 294 -233h-168c-18 34 -51 74 -120 74c-39 2 -72 -13 -96 -38c-23 -25 -36 -60 -36 -99c0 -81 53 -141 132 -141c69 0 102 40 120 74h169c-29 -121 -132 -220 -272 -227z" />
    <glyph glyph-name="eacute" unicode="&#xe9;" horiz-adv-x="646" 
d="M609 220h-413c7 -59 63 -98 128 -98c53 0 81 23 101 52h170c-27 -62 -66 -110 -113 -142c-46 -33 -101 -50 -158 -50c-159 0 -294 129 -294 294c0 155 122 298 291 298c85 0 158 -33 210 -88c70 -75 91 -164 78 -266zM198 346h248c-4 26 -38 88 -124 88
s-120 -62 -124 -88zM197 719l240 129l53 -118l-246 -109z" />
    <glyph glyph-name="ecircumflex" unicode="&#xea;" horiz-adv-x="646" 
d="M609 220h-413c7 -59 63 -98 128 -98c53 0 81 23 101 52h170c-27 -62 -66 -110 -113 -142c-46 -33 -101 -50 -158 -50c-159 0 -294 129 -294 294c0 155 122 298 291 298c85 0 158 -33 210 -88c70 -75 91 -164 78 -266zM198 346h248c-4 26 -38 88 -124 88
s-120 -62 -124 -88zM380 806l160 -166h-160l-56 57l-56 -57h-162l166 166h108z" />
    <glyph glyph-name="edieresis" unicode="&#xeb;" horiz-adv-x="646" 
d="M609 220h-413c7 -59 63 -98 128 -98c53 0 81 23 101 52h170c-27 -62 -66 -110 -113 -142c-46 -33 -101 -50 -158 -50c-159 0 -294 129 -294 294c0 155 122 298 291 298c85 0 158 -33 210 -88c70 -75 91 -164 78 -266zM198 346h248c-4 26 -38 88 -124 88
s-120 -62 -124 -88zM286 795v-151h-159v151h159zM519 795v-151h-159v151h159z" />
    <glyph glyph-name="egrave" unicode="&#xe8;" horiz-adv-x="646" 
d="M609 220h-413c7 -59 63 -98 128 -98c53 0 81 23 101 52h170c-27 -62 -66 -110 -113 -142c-46 -33 -101 -50 -158 -50c-159 0 -294 129 -294 294c0 155 122 298 291 298c85 0 158 -33 210 -88c70 -75 91 -164 78 -266zM198 346h248c-4 26 -38 88 -124 88
s-120 -62 -124 -88zM208 839l242 -128l-46 -97l-247 108z" />
    <glyph glyph-name="iacute" unicode="&#xed;" horiz-adv-x="286" 
d="M60 0v555h166v-555h-166zM36 719l240 129l53 -118l-246 -109z" />
    <glyph glyph-name="icircumflex" unicode="&#xee;" horiz-adv-x="286" 
d="M60 0v555h166v-555h-166zM200 806l160 -166h-160l-56 57l-56 -57h-162l166 166h108z" />
    <glyph glyph-name="idieresis" unicode="&#xef;" horiz-adv-x="286" 
d="M60 0v555h166v-555h-166zM106 795v-151h-159v151h159zM339 795v-151h-159v151h159z" />
    <glyph glyph-name="igrave" unicode="&#xec;" horiz-adv-x="286" 
d="M60 0v555h166v-555h-166zM7 839l242 -128l-46 -97l-247 108z" />
    <glyph glyph-name="ntilde" unicode="&#xf1;" horiz-adv-x="632" 
d="M60 0v555h155v-59c19 27 54 78 153 78c187 0 206 -152 206 -227v-347h-166v303c0 61 -13 115 -87 115c-82 0 -95 -59 -95 -116v-302h-166zM464 788l55 -110c-35 -22 -70 -37 -113 -37c-17 0 -49 7 -81 13c-32 7 -64 13 -79 13c-34 0 -54 -10 -77 -24l-55 113
c25 14 67 35 110 35c27 0 54 -6 81 -12c27 -7 53 -13 81 -13c36 0 58 7 78 22z" />
    <glyph glyph-name="oacute" unicode="&#xf3;" horiz-adv-x="666" 
d="M34 278v1c0 135 97 294 299 294s299 -159 299 -295s-97 -295 -299 -295s-299 159 -299 295zM200 278v-1c0 -80 61 -139 133 -139s133 59 133 140s-61 140 -133 140s-133 -59 -133 -140zM207 719l240 129l53 -118l-246 -109z" />
    <glyph glyph-name="ocircumflex" unicode="&#xf4;" horiz-adv-x="666" 
d="M34 278v1c0 135 97 294 299 294s299 -159 299 -295s-97 -295 -299 -295s-299 159 -299 295zM200 278v-1c0 -80 61 -139 133 -139s133 59 133 140s-61 140 -133 140s-133 -59 -133 -140zM390 806l160 -166h-160l-56 57l-56 -57h-162l166 166h108z" />
    <glyph glyph-name="odieresis" unicode="&#xf6;" horiz-adv-x="666" 
d="M34 278v1c0 135 97 294 299 294s299 -159 299 -295s-97 -295 -299 -295s-299 159 -299 295zM200 278v-1c0 -80 61 -139 133 -139s133 59 133 140s-61 140 -133 140s-133 -59 -133 -140zM296 795v-151h-159v151h159zM529 795v-151h-159v151h159z" />
    <glyph glyph-name="ograve" unicode="&#xf2;" horiz-adv-x="666" 
d="M34 278v1c0 135 97 294 299 294s299 -159 299 -295s-97 -295 -299 -295s-299 159 -299 295zM200 278v-1c0 -80 61 -139 133 -139s133 59 133 140s-61 140 -133 140s-133 -59 -133 -140zM218 839l242 -128l-46 -97l-247 108z" />
    <glyph glyph-name="otilde" unicode="&#xf5;" horiz-adv-x="666" 
d="M34 278v1c0 135 97 294 299 294s299 -159 299 -295s-97 -295 -299 -295s-299 159 -299 295zM200 278v-1c0 -80 61 -139 133 -139s133 59 133 140s-61 140 -133 140s-133 -59 -133 -140zM481 788l55 -110c-35 -22 -70 -37 -113 -37c-17 0 -49 7 -81 13
c-32 7 -64 13 -79 13c-34 0 -54 -10 -77 -24l-55 113c25 14 67 35 110 35c27 0 54 -6 81 -12c27 -7 53 -13 81 -13c36 0 58 7 78 22z" />
    <glyph glyph-name="scaron" unicode="&#x161;" horiz-adv-x="499" 
d="M459 399h-163c-1 12 -3 42 -52 42c-35 0 -47 -22 -47 -37c0 -25 41 -42 85 -55c94 -26 194 -54 194 -174c0 -122 -103 -194 -226 -194c-84 0 -211 38 -226 184h165c7 -51 56 -51 63 -51c28 0 58 16 58 43c0 38 -41 43 -147 84c-72 23 -132 70 -132 145
c0 115 100 188 215 188c73 0 199 -29 213 -175zM32 799h161l56 -57l56 57h161l-165 -166h-108z" />
    <glyph glyph-name="uacute" unicode="&#xfa;" horiz-adv-x="634" 
d="M574 555v-555h-155v59c-19 -27 -54 -78 -154 -78c-188 0 -207 152 -207 227v347h166v-303c0 -61 13 -115 88 -115c83 0 96 59 96 116v302h166zM226 719l240 129l53 -118l-246 -109z" />
    <glyph glyph-name="ucircumflex" unicode="&#xfb;" horiz-adv-x="634" 
d="M574 555v-555h-155v59c-19 -27 -54 -78 -154 -78c-188 0 -207 152 -207 227v347h166v-303c0 -61 13 -115 88 -115c83 0 96 59 96 116v302h166zM374 806l160 -166h-160l-56 57l-56 -57h-162l166 166h108z" />
    <glyph glyph-name="udieresis" unicode="&#xfc;" horiz-adv-x="634" 
d="M574 555v-555h-155v59c-19 -27 -54 -78 -154 -78c-188 0 -207 152 -207 227v347h166v-303c0 -61 13 -115 88 -115c83 0 96 59 96 116v302h166zM280 795v-151h-159v151h159zM513 795v-151h-159v151h159z" />
    <glyph glyph-name="ugrave" unicode="&#xf9;" horiz-adv-x="634" 
d="M574 555v-555h-155v59c-19 -27 -54 -78 -154 -78c-188 0 -207 152 -207 227v347h166v-303c0 -61 13 -115 88 -115c83 0 96 59 96 116v302h166zM167 839l242 -128l-46 -97l-247 108z" />
    <glyph glyph-name="yacute" unicode="&#xfd;" horiz-adv-x="574" 
d="M119 -185l88 213l-206 527h177l113 -322l106 322h176l-278 -740h-176zM196 719l240 129l53 -118l-246 -109z" />
    <glyph glyph-name="ydieresis" unicode="&#xff;" horiz-adv-x="574" 
d="M119 -185l88 213l-206 527h177l113 -322l106 322h176l-278 -740h-176zM250 795v-151h-159v151h159zM483 795v-151h-159v151h159z" />
    <glyph glyph-name="zcaron" unicode="&#x17e;" horiz-adv-x="444" 
d="M15 0v114l234 315h-234v126h413v-126l-217 -303h217v-126h-413zM24 794h161l56 -57l56 57h161l-165 -166h-108z" />
    <glyph glyph-name="Delta" unicode="&#x2206;" horiz-adv-x="726" 
d="M25 0v92l240 662h204l230 -659v-95h-674zM203 134h312l-99 265c-15 56 -44 139 -55 183h-3c-9 -35 -35 -110 -51 -168z" />
    <glyph glyph-name="Omega" unicode="&#x2126;" horiz-adv-x="777" 
d="M177 135v3c-61 55 -127 150 -127 279c0 176 132 335 340 335c222 0 334 -180 334 -328c0 -128 -63 -227 -130 -286v-3h145v-135h-308v100c64 40 120 123 120 288c0 126 -57 225 -161 225c-100 0 -167 -94 -167 -232c0 -147 55 -245 120 -281v-100h-308v135h142z" />
    <glyph glyph-name="pi" unicode="&#x3c0;" horiz-adv-x="678" 
d="M654 418h-71v-256c0 -73 5 -126 13 -162h-165c-14 25 -19 86 -19 155v263h-125c-4 -106 -27 -308 -64 -418h-166c34 126 62 314 62 418c-43 0 -75 -3 -100 -9l-18 110c28 24 91 40 192 40h474z" />
    <glyph glyph-name="Euro" unicode="&#x20ac;" horiz-adv-x="618" 
d="M461 349l-18 -96h-162c16 -84 52 -101 84 -101c25 0 53 9 68 60h164c-13 -98 -52 -155 -98 -187s-99 -39 -140 -39c-161 0 -234 114 -256 267h-93l18 96h67v21v23h-85l18 96h77c25 144 100 265 258 265c153 0 219 -117 233 -222h-164c-10 31 -36 56 -69 56
c-30 0 -66 -13 -82 -99h206l-18 -96h-197v-23v-21h189z" />
    <glyph glyph-name="estimated" unicode="&#x212e;" horiz-adv-x="926" 
d="M889 359h-691c-3 0 -5 -1 -5 -4v-209c0 -9 3 -17 9 -24c67 -69 159 -114 261 -114c110 0 208 50 275 127h61c-76 -89 -200 -148 -337 -148c-235 0 -426 171 -426 383s191 384 426 384c236 0 427 -172 427 -384v-11zM732 387v210c0 9 -3 18 -10 25
c-67 66 -158 109 -259 109s-193 -45 -260 -113c-7 -7 -10 -16 -10 -26v-205c0 -3 2 -7 5 -7h530c3 0 4 4 4 7z" />
    <glyph glyph-name="partialdiff" unicode="&#x2202;" horiz-adv-x="646" 
d="M112 650l-45 124c32 23 101 63 212 63c173 0 317 -143 317 -406c0 -270 -124 -440 -321 -440c-162 0 -238 145 -238 255c0 170 102 281 239 281c85 0 137 -53 153 -79h1c1 7 1 23 1 29c0 107 -63 223 -175 223c-68 0 -116 -29 -144 -50zM292 129h1c70 0 113 108 122 188
c-7 27 -43 77 -103 77c-66 0 -108 -75 -108 -154c0 -61 36 -111 88 -111z" />
    <glyph glyph-name="product" unicode="&#x220f;" horiz-adv-x="801" 
d="M776 589h-108v-691h-168v691h-200v-691h-168v691h-107v151h751v-151z" />
    <glyph glyph-name="summation" unicode="&#x2211;" horiz-adv-x="616" 
d="M598 -102h-573v103l248 318l-240 305v116h546v-142h-319v-3l203 -249l-228 -292v-3h363v-153z" />
    <glyph glyph-name="uni2219" unicode="&#x2219;" horiz-adv-x="314" 
d="M244 338v-170h-173v170h173z" />
    <glyph glyph-name="radical" unicode="&#x221a;" horiz-adv-x="661" 
d="M677 891l-249 -1036h-131l-158 450l-80 -33l-27 90l206 84l101 -310c9 -37 18 -72 24 -99l2 -1c4 26 10 67 18 109l178 746h116z" />
    <glyph glyph-name="infinity" unicode="&#x221e;" horiz-adv-x="838" 
d="M788 306v-2c0 -123 -88 -194 -178 -194c-58 0 -120 21 -190 119c-55 -70 -110 -119 -196 -119c-91 0 -175 74 -175 188c0 115 80 192 185 192c79 0 135 -41 190 -114c40 45 93 115 191 114c95 -1 173 -72 173 -184zM234 198h2c56 0 97 48 136 96c-42 60 -74 110 -140 110
c-57 0 -93 -42 -94 -106c0 -54 43 -100 96 -100zM607 404h-1c-62 0 -105 -62 -138 -102c62 -81 93 -104 144 -104c56 0 86 57 86 100c0 59 -35 106 -91 106z" />
    <glyph glyph-name="integral" unicode="&#x222b;" horiz-adv-x="448" 
d="M423 909l-15 -112c-11 4 -23 8 -39 8c-22 0 -41 -9 -54 -29c-21 -28 -25 -88 -25 -171c0 -176 16 -296 16 -495c0 -93 -13 -166 -36 -211c-32 -65 -96 -89 -156 -89c-37 0 -73 8 -91 17l19 117c11 -4 26 -10 46 -10c18 0 36 5 47 20c18 24 26 67 26 154
c0 203 -17 326 -17 513c0 127 20 196 69 248c33 36 88 52 140 52c29 0 57 -6 70 -12z" />
    <glyph glyph-name="approxequal" unicode="&#x2248;" horiz-adv-x="593" 
d="M497 494l57 -55c-38 -69 -94 -114 -152 -114c-44 0 -72 12 -119 41c-31 20 -55 36 -90 36c-47 0 -73 -39 -100 -76l-57 55c32 62 94 113 163 113c52 0 84 -21 111 -37c40 -24 61 -39 91 -39c40 0 67 32 96 76zM497 284l57 -55c-38 -68 -93 -114 -153 -114
c-43 0 -74 15 -118 42c-33 20 -56 36 -90 36c-47 0 -72 -38 -100 -77l-57 55c32 62 95 113 163 113c52 0 84 -20 111 -36c33 -19 57 -40 90 -40c42 0 66 31 97 76z" />
    <glyph glyph-name="notequal" unicode="&#x2260;" horiz-adv-x="593" 
d="M444 551l-39 -88h137v-94h-172l-59 -138h231v-94h-267l-52 -120l-74 30l39 90h-138v94h174l59 138h-233v94h269l51 118z" />
    <glyph glyph-name="lessequal" unicode="&#x2264;" horiz-adv-x="593" 
d="M540 110l-485 237v102l484 236v-107l-391 -179v-2l392 -179v-108zM544 -23h-492v96h492v-96z" />
    <glyph glyph-name="greaterequal" unicode="&#x2265;" horiz-adv-x="593" 
d="M57 685l485 -237v-101l-484 -237v108l391 179v3l-392 178v107zM541 -23h-488v96h488v-96z" />
    <glyph glyph-name="lozenge" unicode="&#x25ca;" horiz-adv-x="660" 
d="M609 369l-216 -423h-133l-209 423l215 424h134zM462 365l-109 231c-8 20 -17 46 -20 65h-4c-5 -20 -13 -44 -21 -65l-110 -224l111 -235c7 -20 15 -47 18 -61h5c4 16 13 49 18 59z" />
    <glyph glyph-name="uni02C9" unicode="&#x2c9;" 
d="M457 784v-126h-359v126h359z" />
    <glyph glyph-name="uni00AD" unicode="&#xad;" horiz-adv-x="281" 
d="M0 370h281v-163h-281v163z" />
    <glyph glyph-name="uni03A9" unicode="&#x3a9;" horiz-adv-x="777" 
d="M177 135v3c-61 55 -127 150 -127 279c0 176 132 335 340 335c222 0 334 -180 334 -328c0 -128 -63 -227 -130 -286v-3h145v-135h-308v100c64 40 120 123 120 288c0 126 -57 225 -161 225c-100 0 -167 -94 -167 -232c0 -147 55 -245 120 -281v-100h-308v135h142z" />
    <glyph glyph-name="uni00A0" unicode="&#xa0;" horiz-adv-x="309" 
 />
    <glyph glyph-name="afii61289" unicode="&#x2113;" horiz-adv-x="585" 
d="M499 218l67 -71c-63 -121 -156 -158 -243 -158c-131 0 -189 71 -206 161c0 3 0 7 -1 10c-17 -12 -34 -26 -52 -38l-41 86c32 26 63 48 91 73v249c0 190 90 282 211 282c115 0 165 -89 165 -197c0 -123 -80 -236 -212 -358l1 -45c2 -54 36 -88 85 -88c54 0 103 46 135 94z
M278 538v-132c64 73 106 156 106 215c0 47 -14 74 -49 74c-28 0 -57 -32 -57 -157z" />
    <glyph glyph-name="uni03BC" unicode="&#x3bc;" horiz-adv-x="634" 
d="M52 -190v745h166v-274c0 -35 5 -71 20 -99c15 -27 40 -45 78 -45c39 0 63 18 78 45c16 28 21 64 21 99v274h166v-555h-158v69c-10 -22 -40 -79 -105 -79c-55 0 -86 31 -100 54v-48v-186h-166z" />
    <glyph glyph-name="uni2215" unicode="&#x2215;" horiz-adv-x="211" 
d="M-118 0l310 740h137l-311 -740h-136z" />
    </font>
</defs>
</svg>
